<svg height="800px" width="800px" version="1.1" id="Layer_1" xmlns="http://www.w3.org/2000/svg" xmlns:xlink="http://www.w3.org/1999/xlink" 
	 viewBox="0 0 505 505" xml:space="preserve">
<circle style="fill:#FFD05B;" cx="252.5" cy="252.5" r="252.5"/>
<path style="fill:#FFFFFF;" d="M380.2,211.3h-0.1c1.8-6.3,2.8-12.9,2.8-19.8c0-40.4-32.8-73.2-73.2-73.2c-16.5,0-31.7,5.5-44,14.8
	c-13.4-15.3-33.1-25-55-25c-40.4,0-73.2,32.8-73.2,73.2c0,3.6,0.3,7.1,0.8,10.6c-37.4,3.3-66.8,34.6-66.8,72.9
	c0,40.4,32.8,73.2,73.2,73.2c2.3,0,4.6-0.1,6.9-0.3c-5.4,17.1-16.7,37.2-38.6,59.3c0,0,72.5-8.2,99.2-60c3.9,0.6,7.8,1,11.8,1
	c16.1,0,31-5.3,43.1-14.1c9.8,8.7,22.6,14.1,36.8,14.1c20.6,0,38.5-11.3,48-28c8.2,5.2,17.9,8.2,28.3,8.2
	c29.5,0,53.4-23.9,53.4-53.4C433.6,235.2,409.7,211.3,380.2,211.3z"/>
<g>
	<path style="fill:#FF7058;" d="M196,254.9h-30.8c-0.7,0-1.2-0.6-1.2-1.2v-30.8c0-0.7,0.6-1.2,1.2-1.2H196c0.7,0,1.2,0.6,1.2,1.2
		v30.8C197.2,254.3,196.7,254.9,196,254.9z"/>
	<path style="fill:#FF7058;" d="M258.4,254.9h-30.8c-0.7,0-1.2-0.6-1.2-1.2v-30.8c0-0.7,0.6-1.2,1.2-1.2h30.8c0.7,0,1.2,0.6,1.2,1.2
		v30.8C259.6,254.3,259.1,254.9,258.4,254.9z"/>
	<path style="fill:#FF7058;" d="M320.8,254.9H290c-0.7,0-1.2-0.6-1.2-1.2v-30.8c0-0.7,0.6-1.2,1.2-1.2h30.8c0.7,0,1.2,0.6,1.2,1.2
		v30.8C322,254.3,321.5,254.9,320.8,254.9z"/>
</g>
</svg>
