<?xml version="1.0" encoding="UTF-8"?>
<svg xmlns="http://www.w3.org/2000/svg" xmlns:xlink="http://www.w3.org/1999/xlink" width="24" height="24" viewBox="0 0 24 24">
<path fill-rule="nonzero" fill="rgb(100%, 81.568627%, 35.686275%)" fill-opacity="1" d="M 24 12 C 24 18.628906 18.628906 24 12 24 C 5.371094 24 0 18.628906 0 12 C 0 5.371094 5.371094 0 12 0 C 18.628906 0 24 5.371094 24 12 Z M 24 12 "/>
<path fill-rule="nonzero" fill="rgb(100%, 100%, 100%)" fill-opacity="1" d="M 18.070312 10.042969 L 18.0625 10.042969 C 18.148438 9.742188 18.195312 9.429688 18.195312 9.101562 C 18.195312 7.179688 16.636719 5.621094 14.71875 5.621094 C 13.933594 5.621094 13.210938 5.882812 12.628906 6.324219 C 11.992188 5.597656 11.054688 5.136719 10.011719 5.136719 C 8.09375 5.136719 6.535156 6.695312 6.535156 8.617188 C 6.535156 8.789062 6.550781 8.953125 6.574219 9.121094 C 4.796875 9.277344 3.398438 10.765625 3.398438 12.585938 C 3.398438 14.503906 4.957031 16.0625 6.875 16.0625 C 6.984375 16.0625 7.09375 16.058594 7.203125 16.050781 C 6.949219 16.863281 6.410156 17.816406 5.371094 18.867188 C 5.371094 18.867188 8.816406 18.476562 10.085938 16.015625 C 10.269531 16.042969 10.457031 16.0625 10.644531 16.0625 C 11.410156 16.0625 12.117188 15.8125 12.695312 15.394531 C 13.160156 15.808594 13.769531 16.0625 14.441406 16.0625 C 15.421875 16.0625 16.273438 15.527344 16.722656 14.734375 C 17.113281 14.980469 17.574219 15.121094 18.070312 15.121094 C 19.472656 15.121094 20.605469 13.988281 20.605469 12.585938 C 20.605469 11.179688 19.472656 10.042969 18.070312 10.042969 Z M 18.070312 10.042969 "/>
<path fill-rule="nonzero" fill="rgb(100%, 43.921569%, 34.509804%)" fill-opacity="1" d="M 9.316406 12.113281 L 7.851562 12.113281 C 7.816406 12.113281 7.792969 12.085938 7.792969 12.058594 L 7.792969 10.59375 C 7.792969 10.558594 7.824219 10.535156 7.851562 10.535156 L 9.316406 10.535156 C 9.347656 10.535156 9.371094 10.566406 9.371094 10.59375 L 9.371094 12.058594 C 9.371094 12.085938 9.347656 12.113281 9.316406 12.113281 Z M 9.316406 12.113281 "/>
<path fill-rule="nonzero" fill="rgb(100%, 43.921569%, 34.509804%)" fill-opacity="1" d="M 12.28125 12.113281 L 10.816406 12.113281 C 10.785156 12.113281 10.757812 12.085938 10.757812 12.058594 L 10.757812 10.59375 C 10.757812 10.558594 10.789062 10.535156 10.816406 10.535156 L 12.28125 10.535156 C 12.3125 10.535156 12.335938 10.566406 12.335938 10.59375 L 12.335938 12.058594 C 12.335938 12.085938 12.3125 12.113281 12.28125 12.113281 Z M 12.28125 12.113281 "/>
<path fill-rule="nonzero" fill="rgb(100%, 43.921569%, 34.509804%)" fill-opacity="1" d="M 15.246094 12.113281 L 13.78125 12.113281 C 13.75 12.113281 13.726562 12.085938 13.726562 12.058594 L 13.726562 10.59375 C 13.726562 10.558594 13.753906 10.535156 13.78125 10.535156 L 15.246094 10.535156 C 15.277344 10.535156 15.304688 10.566406 15.304688 10.59375 L 15.304688 12.058594 C 15.304688 12.085938 15.277344 12.113281 15.246094 12.113281 Z M 15.246094 12.113281 "/>
</svg>
